<svg width="63" height="63" viewBox="0 0 63 63" fill="none" xmlns="http://www.w3.org/2000/svg">
<path d="M27.4335 15.2334V27.4334H15.2334" stroke="#12385D" stroke-width="1.5" stroke-linecap="square"/>
<path d="M37.5996 39.6333V47.7666C37.5996 51.1359 43.0612 53.8666 49.7997 53.8666C56.5382 53.8666 61.9997 51.1359 61.9997 47.7666V39.6333" stroke="#12385D" stroke-width="1.5"/>
<path d="M37.5996 47.7666V55.8999C37.5996 59.2692 43.0612 61.9999 49.7997 61.9999C56.5382 61.9999 61.9997 59.2692 61.9997 55.8999V47.7666" stroke="#12385D" stroke-width="1.5"/>
<ellipse cx="49.7997" cy="39.6333" rx="12.2001" ry="6.1" stroke="#12385D" stroke-width="1.5" stroke-linecap="square"/>
<path d="M29.4668 53.7894C28.7958 53.8402 28.1167 53.8667 27.4335 53.8667C12.8341 53.8667 1 42.0327 1 27.4333C1 12.834 12.8341 1 27.4335 1C41.3477 1 52.7527 11.7523 53.7897 25.4" stroke="#12385D" stroke-width="1.5" stroke-linecap="square"/>
</svg>
