<svg width="63" height="63" viewBox="0 0 63 63" fill="none" xmlns="http://www.w3.org/2000/svg">
<path d="M29.5607 7.50634C28.5943 5.22305 26.8947 3.35251 24.7479 2.20926C22.6011 1.066 20.138 0.719761 17.7728 1.22875C15.4075 1.73774 13.2843 3.07092 11.7603 5.00412C10.2363 6.93732 9.4043 9.35262 9.4043 11.8439C9.4043 14.3352 10.2363 16.7505 11.7603 18.6837C13.2843 20.6169 15.4075 21.95 17.7728 22.459C20.138 22.968 22.6011 22.6218 24.7479 21.4785C26.8947 20.3353 28.5943 18.4647 29.5607 16.1814H37.8105L42.0174 19.4346L46.2243 16.1814H51.4829L53.5863 7.50634H29.5607Z" stroke="#12395D" stroke-width="1.5" stroke-miterlimit="10" stroke-linecap="square"/>
<path d="M9.41357 33.5316H11.517C16.355 33.5316 21.6136 36.1341 24.1377 40.0379H32.5515C36.7584 40.0379 40.9653 44.3755 40.9653 48.713H22.0343" stroke="#12395D" stroke-width="1.5" stroke-miterlimit="10"/>
<path d="M39.7032 44.3755H53.586C61.1584 44.3755 61.9998 48.7131 61.9998 48.7131L31.9205 61.292C30.748 61.7936 29.4858 62.0336 28.2169 61.9962C26.948 61.9588 25.7012 61.6449 24.5584 61.0751L9.41357 53.0506" stroke="#12395D" stroke-width="1.5" stroke-miterlimit="10"/>
<path d="M9.41379 29.1941H1V57.3882H9.41379V29.1941Z" stroke="#12395D" stroke-width="1.5" stroke-miterlimit="10" stroke-linecap="square"/>
<path d="M17.8275 15.097C19.5701 15.097 20.9827 13.6405 20.9827 11.8439C20.9827 10.0472 19.5701 8.5907 17.8275 8.5907C16.085 8.5907 14.6724 10.0472 14.6724 11.8439C14.6724 13.6405 16.085 15.097 17.8275 15.097Z" stroke="#12395D" stroke-width="1.5" stroke-miterlimit="10" stroke-linecap="square"/>
</svg>
